<?xml version="1.0" standalone="no"?>
<!DOCTYPE svg PUBLIC "-//W3C//DTD SVG 20010904//EN"
 "http://www.w3.org/TR/2001/REC-SVG-20010904/DTD/svg10.dtd">
<svg version="1.0" xmlns="http://www.w3.org/2000/svg"
 width="8000.000000pt" height="4705.000000pt" viewBox="0 0 8000.000000 4705.000000"
 preserveAspectRatio="xMidYMid meet">
<metadata>
Created by potrace 1.16, written by Peter Selinger 2001-2019
</metadata>
<g transform="translate(0.000000,4705.000000) scale(0.100000,-0.100000)"
fill="#000000" stroke="none">
<path d="M47864 45671 c-30 -18 -43 -43 -58 -111 -3 -14 -10 -97 -16 -185 -9
-123 -9 -212 1 -382 13 -239 10 -277 -32 -322 -20 -21 -22 -21 -40 -5 -26 23
-54 114 -99 323 -61 284 -124 438 -195 482 -40 25 -51 24 -71 -6 -16 -24 -16
-38 0 -203 21 -209 56 -485 92 -706 29 -179 27 -234 -11 -272 -13 -13 -31 -24
-40 -24 -9 0 -71 56 -138 124 -134 136 -205 181 -304 193 -75 8 -77 -8 -8
-108 96 -141 185 -334 224 -486 11 -43 32 -142 46 -221 42 -233 90 -341 194
-435 l51 -45 -38 -88 c-21 -49 -51 -124 -67 -166 -16 -42 -32 -75 -36 -73 -3
3 -9 23 -13 46 -10 64 -61 187 -111 268 -138 224 -342 372 -610 441 -80 20
-139 42 -177 65 -81 50 -131 66 -234 72 -254 16 -490 -121 -654 -379 l-49 -78
31 -16 c210 -108 622 -893 655 -1246 4 -50 10 -69 22 -72 37 -11 182 -36 264
-47 193 -25 396 34 559 163 28 23 49 35 46 27 -3 -8 -35 -104 -71 -214 -167
-507 -350 -1177 -433 -1585 -45 -217 -44 -429 2 -596 5 -18 -15 -32 -163 -114
-92 -52 -332 -187 -533 -301 -201 -114 -478 -268 -615 -343 -265 -145 -872
-452 -990 -500 -140 -58 -230 -99 -236 -109 -21 -31 -75 -461 -89 -702 -26
-441 50 -788 229 -1056 86 -130 70 -130 218 4 70 63 209 192 308 287 99 95
275 257 390 359 473 418 1029 924 1400 1275 920 872 1107 1084 1145 1296 6 36
25 117 40 180 72 287 84 443 75 1000 -12 774 36 1435 151 2094 l25 140 57 60
c176 185 309 407 420 703 28 73 71 164 97 204 27 41 117 144 213 243 176 180
259 288 268 348 5 31 3 38 -20 53 -24 16 -28 16 -70 -4 -24 -12 -67 -48 -97
-83 -66 -76 -207 -194 -323 -270 -119 -78 -156 -76 -156 9 0 48 18 78 238 378
137 186 227 343 220 385 -4 30 -28 45 -60 37 -48 -12 -183 -162 -397 -442 -50
-66 -110 -135 -133 -152 -42 -34 -88 -43 -106 -20 -25 31 -33 131 -31 416 1
353 -12 447 -68 491 -32 25 -50 25 -89 1z"/>
<path d="M65630 45040 c-39 -39 -21 -77 93 -199 93 -100 179 -215 243 -328 48
-85 54 -117 25 -133 -58 -30 -111 -2 -326 176 -264 217 -422 322 -471 312 -24
-4 -38 -31 -31 -59 14 -56 159 -201 412 -411 97 -81 160 -145 177 -183 16 -35
2 -73 -30 -82 -42 -12 -308 -9 -487 4 -250 20 -397 -4 -419 -69 -13 -38 8 -81
52 -106 72 -40 377 -71 647 -65 185 3 254 -7 297 -46 28 -25 29 -28 14 -44
-26 -25 -102 -45 -326 -82 -231 -39 -314 -62 -411 -111 -71 -35 -99 -64 -99
-100 0 -39 25 -48 128 -46 144 3 512 30 722 52 219 24 270 25 313 7 85 -36 75
-74 -48 -172 -105 -84 -166 -153 -203 -234 -28 -62 -40 -135 -23 -145 6 -4 44
13 84 38 116 73 273 143 403 180 107 31 471 92 482 81 2 -2 -27 -91 -66 -197
-38 -106 -78 -217 -88 -247 -19 -53 -20 -54 -74 -68 -105 -27 -178 -86 -202
-165 -11 -38 -10 -44 20 -102 64 -123 156 -212 290 -279 76 -37 92 -42 176
-45 153 -7 270 31 370 119 68 60 76 81 61 154 -17 77 -52 170 -70 185 -8 7
-15 28 -15 46 0 48 56 418 91 608 42 224 45 252 37 326 -11 98 -46 153 -198
312 -240 252 -431 385 -736 513 -56 24 -128 60 -160 80 -70 45 -184 154 -299
285 -89 102 -187 188 -263 232 -56 33 -66 34 -92 8z"/>
<path d="M12700 43532 c-26 -8 -51 -35 -100 -107 -95 -141 -162 -302 -230
-555 -62 -235 -70 -260 -78 -260 -15 0 -42 59 -48 102 -10 69 18 179 100 395
111 295 116 355 35 387 -53 21 -107 20 -145 -3 -44 -27 -77 -103 -109 -251
-58 -269 -65 -306 -65 -339 0 -19 -4 -31 -8 -25 -5 5 -18 109 -30 231 -25 248
-42 312 -98 368 -43 43 -95 58 -149 44 -55 -15 -117 -82 -136 -145 -20 -71
-18 -350 5 -474 16 -90 48 -227 62 -267 5 -12 4 -15 -3 -8 -20 19 -122 302
-168 465 -57 204 -76 247 -110 256 -81 20 -107 -124 -60 -331 14 -60 25 -112
25 -114 0 -3 -24 18 -52 46 -98 95 -188 119 -231 61 -18 -25 -19 -31 -7 -90
15 -78 53 -162 113 -250 25 -38 44 -68 42 -68 -2 0 -32 7 -67 16 -88 23 -251
15 -332 -16 -103 -40 -170 -122 -147 -181 15 -40 42 -57 157 -100 320 -118
365 -141 484 -241 79 -67 184 -201 235 -303 39 -76 54 -154 55 -278 l0 -67 28
7 c48 14 175 6 259 -16 114 -29 301 -100 403 -151 255 -128 542 -389 598 -543
14 -40 20 -47 37 -42 183 54 208 58 380 58 152 0 181 -3 268 -26 179 -48 360
-147 495 -273 110 -101 185 -209 274 -392 50 -104 88 -168 103 -178 104 -68
196 182 152 412 -60 316 -288 562 -644 693 -105 39 -295 81 -399 88 -90 6
-116 23 -36 23 76 0 202 -18 386 -56 169 -35 374 -54 429 -40 55 13 73 66 43
125 -21 40 -97 106 -157 136 -60 31 -198 68 -314 84 -112 16 -277 51 -295 63
-23 14 260 2 365 -17 128 -22 253 -59 378 -112 199 -83 315 -179 377 -309 16
-35 39 -73 50 -84 28 -28 64 -25 90 8 20 24 22 35 17 112 -11 176 -106 364
-262 514 -129 124 -318 217 -514 251 -151 27 -425 13 -528 -26 -22 -8 -24 -8
-14 5 20 23 165 76 271 98 73 16 133 20 260 20 175 0 189 -1 564 -57 255 -37
460 -49 581 -34 99 12 113 17 126 41 34 63 -79 190 -236 264 -166 79 -363 110
-645 101 -352 -10 -640 -86 -1030 -272 -96 -46 -190 -87 -209 -90 l-34 -7 22
30 c88 125 393 312 710 436 246 97 320 145 366 237 64 125 0 165 -197 124
-216 -46 -413 -132 -738 -322 -53 -32 64 68 151 127 103 71 179 108 369 178
247 92 317 130 344 187 28 58 -12 114 -99 141 -62 18 -119 18 -236 -2 -206
-35 -384 -115 -660 -299 -93 -63 -166 -108 -162 -102 4 7 55 68 114 137 228
267 328 445 275 489 -44 37 -150 20 -236 -36 -104 -69 -328 -320 -514 -577
-54 -75 -101 -134 -103 -132 -9 9 20 82 71 181 53 102 80 145 327 524 158 243
167 270 104 296 -41 18 -75 8 -119 -33 -70 -66 -287 -346 -401 -516 -31 -48
-59 -85 -61 -83 -2 2 10 37 27 78 94 227 149 432 149 556 0 86 -19 119 -60
105z"/>
<path d="M65877 42858 c-41 -99 -50 -146 -50 -253 1 -154 43 -260 148 -369 72
-76 182 -129 278 -134 64 -4 86 -16 50 -28 -71 -23 -149 -72 -210 -132 -123
-121 -187 -284 -216 -548 -3 -31 -1 -32 50 -46 29 -9 50 -12 48 -8 -11 17 17
120 52 190 63 130 196 241 321 269 23 5 42 8 42 6 0 -2 -27 -114 -60 -250
-109 -447 -276 -1212 -316 -1445 -57 -331 -30 -562 84 -726 26 -38 64 -98 84
-134 20 -36 95 -154 167 -263 399 -603 709 -1007 1726 -2247 323 -394 636
-785 780 -974 272 -358 441 -561 629 -756 l112 -115 39 -129 39 -128 -23 -312
c-44 -628 -75 -1342 -86 -2056 -9 -551 -24 -1072 -32 -1099 -4 -17 -3 -22 5
-17 7 4 12 14 12 21 0 22 84 178 128 237 83 112 210 221 326 280 l59 30 -7 91
c-12 178 -27 1066 -24 1397 l3 335 32 -95 c166 -501 369 -1009 573 -1437 l73
-153 101 0 c263 0 655 -52 951 -126 577 -144 1125 -387 1604 -711 125 -84 140
-88 141 -41 0 9 5 20 10 23 6 4 10 -12 10 -42 l0 -49 73 -53 c89 -67 277 -223
277 -231 0 -3 -26 -37 -57 -74 -78 -92 -77 -91 -70 -110 13 -34 171 -8 245 40
24 16 26 15 139 -97 l114 -114 -6 45 c-3 25 -14 108 -25 185 l-20 140 30 28
c37 34 60 34 90 2 35 -37 30 -110 -19 -285 -60 -210 -113 -427 -162 -657 -41
-193 -42 -202 -25 -227 26 -41 62 -34 117 23 65 68 127 198 200 420 98 302
143 372 183 288 23 -50 20 -118 -14 -311 -55 -314 -66 -597 -24 -653 54 -72
117 -64 159 21 37 76 58 204 75 451 12 173 23 245 51 333 19 56 23 62 47 62
59 0 106 -52 228 -256 154 -258 270 -416 319 -434 11 -4 28 -3 39 2 15 8 18
19 14 64 -6 66 -84 227 -249 512 -124 214 -140 264 -101 311 l19 25 45 -27
c73 -43 217 -176 300 -277 136 -166 161 -190 196 -190 20 0 36 7 45 21 37 52
-45 197 -256 456 -141 172 -185 259 -231 456 -64 268 -208 564 -379 777 -50
62 -35 78 36 39 108 -58 253 -77 314 -39 47 28 54 50 55 168 2 342 -178 564
-484 596 -83 9 -169 -7 -206 -39 -26 -22 -27 -27 -27 -122 1 -74 6 -113 22
-158 l21 -59 -116 -156 c-63 -85 -144 -190 -179 -233 -77 -95 -111 -161 -153
-297 -42 -137 -42 -137 -46 -125 -2 6 -26 165 -53 355 -131 898 -237 1580
-330 2120 -22 124 -42 279 -45 345 -17 336 -38 587 -72 874 -14 117 -24 219
-22 225 2 8 122 -12 403 -70 596 -123 1264 -248 1840 -345 138 -23 252 -43
254 -45 2 -2 -27 -49 -63 -106 -81 -125 -191 -340 -325 -636 -94 -207 -167
-361 -178 -372 -2 -2 -7 0 -11 6 -4 5 -20 19 -35 31 l-29 22 -58 -47 -59 -47
48 -17 c26 -10 57 -29 70 -41 l21 -24 -90 -171 c-88 -166 -110 -199 -110 -169
0 23 -88 115 -137 143 -98 58 -227 78 -330 53 -57 -15 -123 -75 -123 -112 0
-26 0 -26 35 -11 79 33 172 8 236 -63 69 -76 76 -160 22 -271 l-29 -62 35 0
c44 -1 190 -60 288 -118 236 -138 321 -343 245 -589 l-20 -62 39 -51 c173
-230 150 -519 -57 -726 l-62 -62 33 -32 33 -32 60 36 c76 46 178 154 219 232
18 34 39 90 48 125 15 66 21 194 8 186 -5 -3 -9 15 -9 38 -1 25 -14 70 -31
107 -32 67 -120 173 -155 183 -11 4 -16 11 -12 15 5 5 34 2 64 -6 208 -54 444
44 651 270 l69 77 -32 39 c-17 22 -32 40 -34 40 -1 0 -27 -25 -58 -55 -107
-104 -268 -156 -419 -134 -58 8 -167 44 -167 55 0 9 108 186 147 241 24 34 72
87 106 119 34 32 61 61 60 65 -1 4 3 6 10 6 7 -1 42 14 80 32 37 18 99 38 137
45 l70 12 -40 39 c-38 37 -44 40 -95 38 l-55 -2 118 127 c305 330 746 856 891
1063 60 85 142 241 169 324 11 33 26 99 33 146 19 137 -15 272 -100 398 -78
115 -183 187 -311 215 -47 10 -183 74 -490 228 -791 399 -1294 622 -1845 822
-544 196 -1133 342 -1620 401 -71 9 -148 20 -170 25 -22 5 -57 10 -78 10 -32
0 -50 10 -105 57 -188 159 -488 312 -743 378 l-106 27 -86 267 c-47 146 -93
292 -103 325 l-19 59 45 38 44 38 48 -45 c27 -25 79 -60 116 -77 62 -30 75
-32 172 -32 94 0 111 3 164 27 89 42 151 93 197 161 22 34 46 61 52 59 6 -2
23 -12 38 -23 103 -73 261 -119 410 -119 125 0 214 23 358 94 129 63 144 65
296 40 170 -29 318 11 430 117 102 96 140 194 133 344 -3 73 -9 102 -29 143
l-26 52 36 5 c99 16 175 39 261 81 287 141 405 446 275 710 -20 41 -52 87 -75
108 -22 20 -39 36 -38 37 2 0 19 3 38 5 96 13 199 97 248 202 21 46 27 75 30
149 7 162 -50 295 -183 429 -110 111 -241 181 -380 202 l-50 8 44 23 c161 84
249 308 195 492 -78 262 -331 433 -675 455 l-97 7 30 26 c65 54 87 172 49 256
-23 51 -95 115 -169 150 -129 61 -356 101 -522 92 -120 -7 -199 -26 -282 -68
-31 -16 -60 -29 -62 -29 -3 0 0 14 6 31 38 110 -49 222 -212 274 -162 50 -232
60 -445 60 -173 0 -214 -3 -304 -23 -124 -28 -251 -72 -345 -119 -37 -19 -70
-33 -72 -31 -2 2 1 22 7 43 34 123 -60 302 -193 371 -25 13 -78 29 -116 35
-120 20 -281 -27 -404 -117 -27 -20 -50 -35 -52 -33 -1 2 -12 20 -24 40 -87
144 -290 229 -477 199 -170 -27 -319 -104 -445 -230 -135 -135 -190 -274 -159
-400 l14 -55 -82 -16 c-122 -25 -204 -70 -293 -159 -114 -114 -160 -222 -160
-377 0 -133 31 -237 99 -337 l30 -44 -55 -28 c-78 -39 -158 -124 -201 -212
-31 -62 -37 -86 -41 -156 -8 -156 32 -263 140 -368 57 -57 64 -68 45 -68 -12
0 -46 -14 -75 -30 -65 -38 -115 -110 -138 -200 -55 -217 78 -415 357 -530 39
-17 75 -30 80 -30 4 0 20 -5 35 -10 l27 -11 -26 -27 c-38 -40 -69 -117 -75
-188 -13 -168 85 -331 244 -406 92 -43 194 -48 369 -18 72 12 164 23 205 24
l75 1 7 -65 c37 -336 151 -668 315 -916 37 -56 36 -52 113 -487 l50 -279 -98
-121 c-53 -67 -124 -162 -157 -210 l-60 -89 -30 34 c-16 19 -76 86 -131 148
-56 63 -182 194 -280 290 -318 312 -626 571 -1569 1325 -522 417 -1145 925
-1214 991 -13 11 -7 27 37 112 89 170 157 416 180 652 11 108 13 440 3 638
l-6 134 30 -7 c17 -3 57 -8 90 -12 l60 -5 21 75 20 75 -32 -14 c-40 -17 -90
-18 -148 -3 l-43 11 -6 141 c-4 78 -7 170 -7 205 l0 62 49 -24 c142 -72 331
-44 458 68 70 62 102 152 72 207 -10 19 -11 18 -32 -13 -108 -160 -335 -115
-393 78 -8 26 -14 60 -14 76 0 15 -1 28 -3 28 -2 0 -21 -9 -44 -20 -54 -26
-256 -60 -357 -60 -145 0 -263 45 -346 131 -52 54 -110 157 -129 229 -12 43
-16 47 -64 64 -90 31 -170 82 -233 148 -112 117 -157 226 -156 378 0 55 6 115
15 142 l15 47 -32 6 c-17 4 -38 9 -47 11 -12 3 -23 -11 -42 -58z"/>
<path d="M43535 42764 c-374 -57 -641 -132 -870 -244 -119 -58 -202 -117 -247
-175 -12 -16 -26 -31 -30 -33 -4 -2 -61 -39 -125 -82 -145 -96 -261 -198 -373
-326 -159 -182 -339 -317 -505 -379 -130 -49 -271 -78 -387 -79 -60 -1 -108
-3 -108 -5 0 -2 72 -116 160 -253 89 -137 163 -262 166 -278 5 -20 0 -40 -16
-64 -12 -20 -25 -36 -28 -37 -4 -1 -36 -2 -72 -3 -111 -3 -185 -62 -179 -144
2 -31 -5 -48 -38 -92 -78 -105 -88 -133 -88 -250 0 -101 2 -108 38 -182 96
-197 301 -333 760 -503 l207 -78 0 -126 c0 -69 -5 -180 -10 -246 -5 -66 -12
-156 -15 -200 -33 -445 -39 -473 -122 -639 -94 -188 -220 -356 -452 -604 -178
-190 -317 -321 -428 -405 -45 -34 -82 -66 -83 -71 0 -12 218 0 343 19 438 66
1081 298 1377 497 52 35 174 123 270 195 143 107 259 186 368 250 13 8 8 157
-13 408 -39 467 -40 653 -9 845 39 235 112 338 284 400 133 49 213 48 366 -2
529 -176 1093 103 1384 683 50 98 108 253 130 347 12 51 11 54 -23 125 -19 39
-83 207 -142 372 -59 165 -130 356 -157 425 -74 185 -207 452 -278 560 -84
127 -215 257 -300 298 -102 50 -260 73 -515 77 -115 2 -223 1 -240 -1z"/>
<path d="M11416 41349 c-21 -16 -26 -28 -24 -53 3 -28 8 -32 48 -42 29 -7 61
-7 90 -2 161 32 397 -48 735 -252 265 -160 408 -274 532 -428 64 -80 79 -93
102 -90 63 7 27 110 -78 221 -181 192 -499 381 -942 561 -230 93 -275 106
-364 106 -58 0 -77 -4 -99 -21z"/>
<path d="M11295 41076 c-367 -96 -700 -346 -939 -706 -54 -81 -67 -108 -46
-95 5 3 -19 -31 -53 -77 -165 -219 -305 -513 -376 -791 -93 -362 -91 -746 5
-1086 31 -109 33 -86 -37 -696 -52 -456 -45 -425 -95 -440 -60 -18 -149 -80
-226 -157 -115 -116 -188 -300 -188 -471 0 -179 79 -446 163 -556 139 -181
482 -322 819 -338 278 -14 505 75 702 273 110 111 204 269 242 409 25 91 30
306 10 398 -21 95 -80 217 -141 291 l-47 58 49 -28 c26 -15 54 -32 61 -37 7
-5 15 -7 18 -4 5 5 -91 81 -131 105 -9 5 -16 107 -24 357 -6 193 -11 371 -11
396 l0 45 58 24 c262 106 535 288 757 507 134 131 431 445 508 537 360 430
506 914 401 1331 -16 63 -19 68 -138 182 -300 290 -661 478 -1084 567 -147 31
-144 31 -257 2z"/>
<path d="M5705 40887 c-28 -21 -16 -98 32 -199 55 -114 110 -287 131 -410 17
-98 16 -100 -3 -114 -22 -17 -54 -12 -92 13 -24 16 -52 57 -283 414 -152 235
-238 316 -277 263 -18 -24 -10 -69 27 -151 32 -71 150 -280 220 -394 97 -153
125 -233 100 -279 -11 -20 -17 -22 -63 -16 -73 10 -198 53 -361 126 -278 122
-438 157 -491 104 -25 -25 -19 -88 12 -124 47 -57 393 -211 638 -285 114 -35
175 -66 209 -105 32 -38 32 -46 4 -61 -29 -15 -134 -6 -368 32 -157 26 -203
30 -305 26 -135 -5 -188 -21 -207 -62 -19 -41 12 -61 163 -106 130 -39 532
-140 771 -194 124 -28 190 -62 201 -105 9 -34 -37 -73 -118 -100 -152 -50
-262 -120 -320 -205 -35 -50 -43 -79 -26 -89 4 -3 60 7 122 21 105 25 131 27
329 28 202 0 224 -2 370 -32 85 -17 183 -34 218 -38 34 -4 62 -9 62 -12 0 -6
-124 -187 -264 -383 -60 -85 -300 -409 -531 -720 -467 -626 -580 -784 -772
-1070 -329 -494 -462 -761 -493 -990 -26 -187 25 -350 150 -484 104 -111 184
-151 331 -166 118 -13 830 -38 1294 -46 327 -6 950 6 1100 21 22 2 88 7 148
10 l107 7 0 82 0 83 -247 6 c-137 4 -308 7 -380 7 -128 0 -157 7 -115 28 22
12 83 20 202 27 52 3 118 7 145 10 28 3 93 8 145 11 52 4 102 8 110 10 8 1 38
3 65 3 28 1 55 5 61 9 6 4 15 51 19 105 l7 97 -89 0 c-124 0 -354 17 -515 37
-137 17 -137 17 -148 47 -18 51 -12 83 18 106 24 20 35 21 102 15 114 -9 287
-34 473 -66 93 -16 173 -29 177 -29 5 0 23 46 40 103 73 239 147 399 275 592
29 44 49 81 45 83 -28 10 -1717 -411 -2154 -537 l-68 -20 5 22 c3 12 29 87 57
166 28 80 80 245 115 367 263 907 570 1641 1008 2413 76 134 103 197 118 274
12 66 1 105 -62 208 -29 46 -79 133 -111 194 -126 233 -235 373 -453 580 -182
173 -221 229 -316 454 -76 180 -141 300 -195 357 -42 46 -67 53 -99 31z"/>
<path d="M33166 39844 c-25 -25 -29 -60 -17 -137 18 -109 35 -155 141 -377
103 -214 142 -314 133 -338 -9 -21 -65 -9 -106 22 -19 14 -78 89 -131 165
-190 272 -400 503 -470 516 -106 20 -135 -56 -71 -181 43 -83 91 -149 223
-303 140 -164 232 -301 232 -345 0 -27 -42 -46 -100 -46 -33 0 -130 19 -235
45 -436 109 -575 122 -575 51 0 -61 132 -118 501 -216 228 -60 302 -87 331
-118 53 -57 41 -86 -42 -102 -75 -15 -288 -20 -380 -10 -41 5 -116 12 -166 16
-85 6 -93 5 -113 -15 -77 -77 78 -148 399 -181 287 -30 384 -59 572 -173 120
-73 259 -141 381 -186 69 -25 283 -81 313 -81 15 0 53 -46 144 -172 657 -916
1280 -1664 1935 -2324 278 -280 284 -284 505 -334 159 -36 370 -58 1090 -115
794 -62 1654 -70 2182 -19 l67 7 -58 71 c-62 76 -183 284 -251 431 -96 206
-172 434 -212 637 -20 99 -23 107 -42 103 -12 -3 -129 -25 -261 -50 -385 -73
-809 -159 -1259 -256 -230 -49 -419 -89 -420 -87 -139 212 -203 289 -343 413
-179 160 -331 258 -773 502 -349 192 -521 296 -825 498 -338 224 -642 450
-932 693 -115 95 -133 123 -99 151 7 6 26 39 42 74 24 54 28 74 28 152 -1 116
-28 198 -135 402 -44 83 -93 184 -109 224 -60 144 -110 369 -110 490 0 116
-31 127 -101 35 -60 -79 -99 -222 -99 -368 0 -122 -31 -157 -104 -114 -50 29
-49 27 -176 250 -160 282 -381 637 -429 689 -28 31 -52 34 -75 11z"/>
<path d="M19672 37303 c-120 -125 -334 -368 -486 -551 -147 -177 -214 -222
-262 -175 -15 15 -16 29 -8 108 13 147 10 274 -9 336 -21 69 -56 123 -84 127
-19 3 -23 -5 -38 -69 -52 -229 -158 -440 -328 -656 -183 -230 -220 -305 -221
-450 -1 -72 -4 -94 -16 -99 -8 -3 -91 -32 -185 -64 -755 -258 -1593 -618
-2336 -1006 -371 -193 -492 -270 -624 -395 l-60 -57 -160 145 c-1096 998
-1890 1555 -2749 1929 -171 75 -194 83 -165 61 28 -22 133 -171 171 -243 74
-141 134 -361 158 -584 13 -115 16 -413 6 -555 -14 -196 -83 -502 -146 -650
-11 -26 -20 -48 -20 -51 0 -6 81 -46 85 -42 5 5 51 259 65 363 7 50 16 95 19
102 4 8 117 -47 336 -163 590 -312 1757 -892 2125 -1056 199 -89 393 -163 495
-188 71 -18 108 -22 180 -18 97 5 138 20 190 68 17 15 73 44 125 65 246 96
494 261 771 512 48 43 167 151 265 240 491 444 1085 888 1616 1207 l148 89 71
-6 c103 -9 323 9 464 38 111 22 216 54 437 134 127 46 220 55 420 40 191 -14
395 -8 453 13 74 27 69 93 -9 117 -17 5 -83 12 -147 15 -174 9 -387 50 -476
93 -67 31 -26 103 70 123 29 5 153 19 277 30 316 29 422 46 491 81 57 29 62
65 11 89 -43 20 -216 24 -440 9 -267 -18 -348 -17 -389 4 -46 24 -50 50 -16
95 56 74 100 116 243 235 80 66 169 143 198 171 68 65 140 164 148 205 14 68
-57 109 -135 79 -80 -32 -310 -218 -489 -395 -62 -62 -127 -123 -145 -137 -39
-29 -98 -49 -120 -40 -41 16 -5 86 163 314 128 174 172 246 205 334 27 71 33
144 13 164 -31 31 -61 14 -156 -85z"/>
<path d="M8565 36684 c-54 -18 -107 -64 -133 -115 -19 -36 -23 -56 -20 -110 4
-82 36 -135 105 -176 40 -24 59 -28 119 -28 60 0 76 4 112 28 85 56 124 166
92 262 -35 107 -170 175 -275 139z"/>
<path d="M7983 36013 c-13 -3 -36 -18 -53 -34 -54 -55 -35 -150 36 -184 31
-14 43 -15 75 -6 40 12 75 48 85 88 19 76 -59 150 -143 136z"/>
<path d="M8779 35978 c-25 -41 -19 -95 13 -122 17 -14 33 -17 66 -13 54 6 72
23 79 75 5 34 1 44 -20 66 -20 20 -36 26 -72 26 -40 0 -48 -4 -66 -32z"/>
<path d="M11673 35740 c-110 -67 -70 -249 58 -261 55 -5 81 2 115 34 64 58 63
150 -1 214 -29 29 -39 33 -86 33 -36 0 -65 -7 -86 -20z"/>
<path d="M9854 35417 c-113 -54 -177 -158 -178 -287 0 -57 5 -87 22 -125 109
-240 452 -246 568 -9 52 106 27 267 -55 352 -60 61 -121 86 -221 90 -73 2 -92
-1 -136 -21z"/>
<path d="M8078 35222 c-42 -40 -43 -42 -43 -106 0 -62 2 -68 37 -102 64 -64
170 -58 222 13 27 37 32 106 12 151 -25 53 -60 75 -127 80 -55 4 -59 3 -101
-36z"/>
<path d="M43840 35118 c-36 -27 -85 -62 -110 -76 -25 -14 -85 -50 -134 -79
-187 -112 -406 -215 -637 -301 -244 -91 -609 -198 -704 -206 -27 -2 -99 -14
-160 -25 -219 -42 -414 -63 -605 -64 -245 -3 -474 10 -530 28 -65 21 -264 64
-270 58 -3 -2 -7 -163 -8 -356 -3 -258 1 -405 12 -549 9 -109 16 -203 16 -209
0 -10 108 -6 175 7 71 14 573 90 823 124 84 12 162 18 175 15 17 -5 19 -4 7 4
-12 8 -7 11 20 11 37 0 1085 148 1424 201 156 24 204 29 223 20 13 -6 22 -7
18 -2 -3 5 3 12 12 14 10 2 6 3 -9 2 -16 -1 -28 0 -28 2 0 3 16 52 34 111 52
161 131 442 191 677 51 202 145 612 145 634 0 18 -12 12 -80 -41z"/>
<path d="M8842 34613 c-81 -25 -145 -87 -173 -170 -65 -196 61 -376 262 -374
86 1 139 23 194 79 62 64 85 116 85 189 0 197 -182 333 -368 276z"/>
<path d="M11296 34329 c-52 -41 -21 -129 45 -129 37 0 79 39 79 75 0 33 -41
75 -73 75 -13 0 -36 -9 -51 -21z"/>
<path d="M12026 34243 c-10 -21 -31 -60 -48 -86 -17 -26 -29 -50 -27 -52 12
-12 161 -105 168 -105 5 0 16 40 26 88 22 114 25 119 61 97 l29 -17 -25 21
c-14 11 -31 21 -38 21 -7 0 -38 16 -68 35 -30 19 -56 35 -57 35 -2 0 -11 -17
-21 -37z"/>
<path d="M10367 34159 c-129 -35 -177 -187 -90 -290 35 -41 74 -59 128 -59 87
0 152 48 177 131 21 71 -15 164 -76 196 -40 21 -104 31 -139 22z"/>
<path d="M11813 33935 c-40 -46 -73 -93 -73 -103 0 -11 16 -50 34 -88 26 -52
59 -93 130 -162 52 -51 97 -89 100 -83 5 7 96 374 96 386 0 4 -98 75 -105 75
-2 0 -27 14 -55 30 -28 17 -52 30 -53 30 -1 0 -35 -38 -74 -85z"/>
<path d="M11574 33717 c-22 -18 -53 -41 -69 -52 l-28 -21 81 -194 c65 -158
142 -355 142 -366 0 -1 -19 -16 -42 -33 l-42 -31 -21 68 c-49 152 -122 275
-231 389 l-69 73 -97 -37 c-54 -20 -98 -41 -98 -47 0 -6 40 -86 89 -177 73
-134 221 -476 221 -509 0 -10 -71 -36 -147 -54 l-62 -14 -7 57 c-11 98 -42
233 -69 311 -36 100 -117 256 -158 304 l-33 38 -132 -33 c-72 -19 -134 -39
-136 -45 -7 -17 12 -91 33 -133 11 -20 47 -90 81 -156 68 -131 148 -305 160
-346 l8 -27 -87 -4 c-51 -2 -99 -10 -118 -20 -18 -9 -35 -13 -37 -10 -2 4 -7
30 -10 57 -7 51 -114 601 -120 621 -3 7 -48 2 -137 -15 l-133 -26 -19 -45
c-26 -58 -27 -195 -3 -444 9 -104 14 -207 11 -228 l-7 -39 -104 3 c-57 2 -104
3 -104 3 0 0 9 68 20 150 21 160 48 561 38 570 -3 3 -45 1 -94 -4 -138 -16
-178 -20 -191 -20 -7 -1 -13 -14 -13 -30 0 -72 -78 -445 -123 -591 l-14 -45
-49 3 c-27 2 -51 6 -53 8 -2 2 8 50 22 106 35 140 57 301 60 432 l2 108 -123
3 c-83 1 -125 -2 -127 -9 -1 -6 -10 -47 -20 -91 -25 -116 -60 -214 -121 -344
-57 -121 -92 -174 -125 -192 -37 -19 -43 3 -21 73 51 156 89 356 94 502 l3 79
-105 19 c-58 10 -126 21 -151 24 l-46 6 -17 -43 c-23 -64 -45 -227 -56 -423
-5 -94 -8 -180 -7 -191 1 -14 -5 -21 -20 -23 -31 -5 -60 14 -80 51 -32 60 -24
316 18 550 12 65 19 119 17 121 -1 1 -46 18 -98 38 -52 20 -103 39 -112 43
-13 5 -24 -6 -47 -47 -17 -29 -29 -60 -26 -68 3 -8 16 -103 30 -210 79 -610
235 -1337 404 -1885 22 -73 36 -134 31 -140 -36 -44 -352 -613 -346 -623 2 -4
37 -9 78 -10 360 -14 770 -251 987 -570 154 -228 235 -571 217 -927 -18 -369
-97 -570 -301 -763 -210 -200 -511 -317 -913 -356 -390 -37 -661 14 -884 165
l-56 38 -46 -187 c-55 -227 -222 -979 -231 -1042 -6 -44 -5 -46 34 -78 39 -31
41 -35 35 -75 -3 -23 -12 -62 -20 -87 -24 -79 -152 -589 -194 -775 -22 -99
-68 -295 -100 -435 -75 -324 -100 -449 -107 -530 l-5 -65 101 -45 c56 -24 101
-49 101 -55 0 -5 -9 -80 -20 -165 -48 -383 -78 -809 -86 -1230 -8 -350 1 -490
40 -642 13 -51 27 -129 30 -173 20 -248 123 -825 207 -1160 189 -752 448
-1483 879 -2475 56 -129 111 -257 123 -283 15 -36 24 -46 36 -42 35 14 283 74
411 100 323 64 491 126 613 228 l29 24 -12 159 c-110 1583 -346 2845 -767
4095 l-76 225 102 168 c56 92 140 236 187 319 47 84 88 155 92 159 4 4 140
-36 302 -88 541 -175 1233 -374 2065 -594 283 -76 707 -187 737 -194 l27 -6
55 171 c67 208 205 601 216 613 5 5 43 1 87 -9 226 -49 1010 -232 1223 -285
135 -34 251 -62 259 -63 10 -2 26 60 63 253 67 354 138 750 138 774 1 51 16
50 86 -6 38 -30 130 -98 204 -152 109 -79 143 -110 176 -160 94 -139 248 -241
413 -272 59 -11 127 -15 230 -12 140 3 149 4 214 35 249 118 389 363 535 938
125 492 197 987 236 1625 30 491 11 1242 -50 1965 -15 176 -19 195 -49 262
-109 238 -329 428 -565 488 -200 51 -483 -18 -633 -155 l-55 -50 -32 -133
c-81 -342 -205 -1012 -261 -1404 -13 -90 -26 -163 -29 -163 -3 0 -20 26 -38
59 -26 47 -32 70 -32 118 0 32 -6 81 -13 109 -9 34 -10 56 -3 66 22 36 -156
448 -290 668 -75 123 -288 454 -359 558 l-43 64 15 51 c9 29 19 63 23 77 6 22
-13 55 -143 240 -195 280 -624 851 -706 943 -4 4 -33 -31 -65 -77 -70 -104
-211 -240 -293 -284 -108 -57 -196 -75 -378 -75 -257 -1 -423 47 -582 167
-286 217 -478 648 -433 976 16 118 35 181 87 282 67 132 168 241 302 328 24
16 23 16 -85 86 -90 59 -131 83 -223 131 -1 1 16 48 39 104 121 296 306 832
413 1202 l63 214 -75 106 c-42 58 -111 144 -154 192 -42 47 -74 91 -71 97 4 6
2 8 -4 4 -6 -3 -13 -2 -17 4 -10 16 -27 11 -71 -23z m364 -4773 c337 -48 603
-182 787 -396 231 -267 276 -657 130 -1096 -70 -210 -160 -360 -295 -493 -189
-186 -463 -329 -748 -390 -136 -28 -383 -36 -517 -15 -203 31 -399 107 -571
221 -45 30 -85 55 -88 55 -3 0 -47 42 -99 93 -168 165 -272 332 -334 532 -26
86 -27 100 -28 305 0 171 4 232 18 300 79 370 261 618 562 765 137 68 220 90
410 111 329 35 563 38 773 8z"/>
<path d="M11248 28523 c-16 -4 -18 -18 -18 -121 0 -173 -36 -603 -55 -659 -6
-19 -206 181 -267 268 -29 41 -84 134 -123 207 l-70 131 -23 -22 c-31 -29 -83
-101 -114 -157 -65 -120 -98 -247 -98 -382 0 -85 1 -88 23 -88 178 -1 652 -63
680 -89 17 -16 -175 -176 -293 -245 -50 -30 -186 -93 -233 -109 -16 -6 -16
-11 9 -59 34 -67 95 -159 104 -156 3 2 44 45 89 96 46 52 127 132 180 178 137
120 331 257 345 244 7 -8 27 -326 34 -550 l7 -205 65 3 c122 6 320 52 320 75
0 6 -18 38 -39 72 -62 98 -155 279 -215 419 -31 71 -56 131 -56 134 0 3 57 2
128 -1 229 -11 355 -56 552 -197 61 -44 115 -80 118 -80 14 1 73 81 92 125 23
55 40 148 40 228 0 68 17 65 -200 37 -206 -28 -394 -36 -500 -21 -91 12 -245
55 -255 71 -12 19 141 137 300 231 114 68 262 129 405 166 l99 26 -31 46 c-38
56 -193 211 -211 211 -6 0 -43 -42 -82 -92 -89 -117 -291 -322 -416 -421 -54
-43 -100 -77 -104 -77 -14 0 3 261 24 382 11 65 34 171 51 237 16 66 30 127
30 135 0 14 -19 16 -137 15 -76 -1 -146 -3 -155 -6z"/>
<path d="M34935 32924 c-140 -30 -308 -129 -383 -226 -147 -191 -189 -493
-147 -1078 75 -1057 368 -2147 958 -3555 157 -376 412 -953 613 -1391 l74
-162 11 -142 c20 -249 -17 -627 -86 -894 -126 -489 -360 -922 -660 -1221 -114
-114 -187 -161 -322 -206 -154 -51 -193 -90 -194 -197 -2 -109 67 -219 173
-277 45 -25 67 -30 143 -33 153 -7 268 36 489 181 304 201 534 425 1051 1027
385 449 600 662 875 868 308 231 380 328 380 514 0 89 -23 169 -73 258 -40 72
-193 224 -286 284 -41 27 -234 131 -430 232 l-356 183 -6 148 c-15 353 -21
474 -40 733 -69 976 -186 1805 -370 2625 -27 121 -49 223 -49 227 0 3 62 -30
138 -74 361 -212 715 -404 1367 -743 209 -109 515 -268 680 -355 480 -251 581
-303 738 -375 81 -38 147 -72 147 -75 0 -4 -11 -38 -25 -74 -28 -73 -30 -85
-15 -70 6 6 13 22 15 36 9 46 36 100 48 95 7 -2 91 -34 187 -70 312 -117 618
-185 885 -194 100 -4 163 -10 167 -17 16 -23 7 28 -27 156 -98 378 -136 709
-130 1133 5 328 27 530 91 830 26 121 89 353 119 434 8 24 14 46 12 48 -10 9
-594 231 -937 356 -1020 372 -1774 594 -2685 792 -1018 222 -1862 328 -2140
269z"/>
<path d="M64507 32800 c-149 -27 -220 -68 -319 -185 -122 -143 -190 -315 -227
-573 -38 -260 -46 -414 -46 -842 1 -441 11 -618 60 -1033 30 -248 29 -237 7
-237 -10 0 -29 -12 -43 -26 -20 -21 -24 -36 -23 -82 0 -69 22 -115 96 -204
l53 -63 51 -255 51 -255 -21 -23 c-17 -20 -21 -36 -21 -95 1 -84 15 -117 82
-188 43 -46 46 -54 84 -206 22 -87 60 -230 84 -319 25 -89 45 -164 45 -167 0
-4 -7 -4 -15 -1 -39 15 -100 -64 -129 -166 -51 -177 -35 -545 35 -810 70 -263
167 -500 256 -624 l36 -50 -84 -79 c-250 -235 -556 -438 -859 -570 -346 -151
-724 -237 -1040 -238 -162 -1 -242 15 -366 71 -133 60 -200 60 -270 -2 -53
-47 -77 -101 -82 -188 -6 -100 18 -158 97 -233 119 -114 288 -169 651 -213
246 -30 763 -20 1125 21 59 7 469 43 625 55 234 19 649 14 859 -9 370 -42 505
-22 628 92 51 47 84 99 115 183 18 49 22 81 22 189 0 181 -17 239 -178 629
-36 88 -66 161 -66 162 0 2 18 13 39 24 60 30 97 84 151 221 102 258 131 417
131 704 1 183 -3 227 -25 345 -35 188 -118 427 -195 564 l-38 68 -7 -43 c-18
-117 -23 -42 -18 263 l5 333 39 65 c63 106 81 194 55 267 -13 35 -52 83 -67
83 -5 0 0 18 12 41 18 35 19 45 9 79 -6 22 -24 48 -39 59 l-28 20 -12 213
c-15 252 -45 605 -72 846 -27 238 -32 222 48 159 255 -203 695 -511 1692
-1187 929 -630 1021 -689 1270 -818 69 -36 127 -67 129 -68 5 -4 -16 -96 -99
-439 -37 -154 -76 -316 -85 -360 -10 -44 -40 -174 -67 -290 -51 -218 -108
-481 -207 -960 -176 -850 -271 -1479 -306 -2040 -20 -322 -26 -434 -36 -720
-13 -357 -7 -1102 11 -1315 6 -74 17 -187 25 -250 14 -110 17 -119 76 -223
296 -529 624 -895 937 -1044 106 -51 301 -104 471 -127 131 -19 418 -21 541
-6 271 35 571 143 776 280 87 58 501 465 634 624 41 48 130 154 198 235 175
208 394 499 386 513 -4 6 -3 8 3 5 18 -11 247 324 452 661 51 83 94 152 96
152 2 0 25 -55 51 -122 166 -432 342 -838 505 -1168 l106 -216 -24 -54 c-303
-675 -536 -1324 -742 -2068 -74 -270 -77 -277 -103 -280 -14 -2 -38 -15 -52
-29 -36 -36 -35 -81 4 -118 45 -43 40 -57 -18 -49 -38 5 -50 3 -63 -13 -35
-39 -28 -128 16 -219 l25 -52 -34 -158 c-19 -88 -48 -231 -65 -319 -42 -217
-41 -212 -51 -195 -14 23 -86 -6 -142 -57 -174 -163 -347 -626 -377 -1009 -9
-106 -8 -408 1 -458 2 -15 -33 -41 -172 -125 -245 -149 -295 -184 -381 -270
-131 -131 -184 -256 -177 -415 4 -75 9 -101 32 -146 62 -122 140 -188 401
-343 311 -184 567 -384 995 -777 354 -325 500 -451 680 -591 329 -254 678
-446 874 -480 87 -15 201 -7 258 19 148 67 216 273 127 387 -29 36 -65 52
-181 81 -186 46 -324 133 -525 331 -413 408 -694 927 -817 1511 -14 67 -26
129 -26 137 0 8 16 19 38 24 66 18 187 122 310 266 237 277 396 630 446 994
17 122 22 416 7 426 -6 3 -14 -3 -20 -12 -6 -10 -11 -12 -11 -5 0 7 47 106
105 222 86 171 110 212 135 225 45 23 62 55 59 117 -2 47 6 70 64 195 96 207
209 470 298 700 75 192 82 205 130 250 86 81 118 176 69 213 l-21 16 44 145
c109 349 188 651 246 940 16 80 43 186 59 235 48 139 74 337 101 774 11 171
11 1066 0 1265 -59 1090 -219 2093 -603 3790 -14 61 -32 150 -41 199 l-15 88
60 192 c33 105 85 270 116 366 133 416 364 1182 364 1206 0 5 -16 -20 -36 -56
-123 -221 -353 -404 -632 -504 -318 -113 -787 -113 -1377 0 -962 185 -1847
592 -2489 1144 -585 503 -836 1111 -692 1676 l23 92 -406 200 c-912 451 -1629
753 -2382 1006 -899 301 -1955 527 -2232 476z m4987 -3757 c107 -210 219 -364
370 -512 47 -46 86 -85 86 -87 0 -2 -40 -4 -88 -4 -113 0 -182 -20 -218 -62
-25 -31 -26 -36 -21 -113 5 -85 32 -167 172 -534 110 -289 135 -394 135 -571
0 -118 -18 -206 -61 -296 -18 -38 -33 -75 -32 -81 0 -7 -3 -11 -7 -8 -5 3 -19
-12 -31 -32 -13 -21 -90 -106 -171 -189 -81 -83 -145 -154 -141 -159 5 -4 3
-5 -4 -2 -18 11 -120 -110 -161 -192 -34 -68 -37 -82 -37 -155 1 -95 25 -175
85 -281 120 -213 161 -320 180 -471 27 -217 -45 -467 -187 -644 -36 -45 -113
-120 -195 -187 -220 -182 -287 -270 -311 -410 -17 -96 2 -194 83 -431 42 -126
76 -246 86 -308 15 -92 15 -106 0 -179 -21 -106 -65 -193 -137 -269 -32 -35
-55 -67 -51 -71 4 -5 2 -5 -5 -1 -7 3 -34 -6 -60 -22 -26 -16 -88 -44 -136
-63 -201 -77 -212 -135 -69 -377 41 -70 96 -168 123 -218 49 -96 97 -229 86
-240 -9 -10 -109 80 -239 215 -91 94 -117 127 -122 156 -5 27 -27 58 -80 115
-105 112 -121 149 -121 280 0 93 3 112 27 162 51 109 114 161 273 223 83 33
168 92 161 111 -3 8 0 13 6 11 17 -3 59 78 75 142 32 139 7 294 -91 548 -141
367 -154 487 -73 658 43 90 121 174 299 322 154 127 214 191 257 272 89 170
55 351 -119 636 -220 360 -237 563 -67 822 45 69 103 139 206 248 198 211 276
311 332 428 110 232 76 420 -146 793 -117 196 -190 352 -209 446 -32 156 -13
290 65 447 43 87 66 120 130 184 42 42 79 77 82 77 4 0 36 -57 71 -127z
m-4973 -1079 c19 -14 60 -39 92 -55 l57 -29 -41 -81 c-66 -131 -82 -208 -83
-389 -1 -167 6 -218 60 -455 19 -82 53 -238 74 -346 22 -108 51 -230 65 -270
13 -40 22 -75 20 -78 -8 -7 -115 70 -131 94 -44 67 -132 346 -178 565 -86 406
-85 913 2 1048 18 28 21 28 63 -4z m1220 -101 c45 -90 86 -240 106 -391 19
-148 13 -572 -11 -732 -34 -228 -89 -475 -110 -496 -14 -15 -116 -44 -148 -43
-15 1 -17 3 -6 6 9 2 19 10 21 16 62 151 92 239 108 317 39 204 52 660 24 826
-17 96 -85 307 -135 419 -29 64 -30 71 -14 80 9 6 38 24 63 41 25 18 51 31 56
30 6 -1 26 -34 46 -73z m5453 -132 c82 -35 228 -94 325 -131 126 -48 175 -71
172 -81 -14 -46 -18 -145 -13 -295 4 -141 2 -179 -12 -220 -38 -115 -121 -170
-280 -186 -164 -16 -238 -35 -292 -73 -52 -37 -105 -99 -134 -155 -76 -149
-81 -306 -20 -635 58 -318 55 -486 -13 -632 -53 -116 -137 -187 -347 -295
-281 -144 -370 -241 -370 -403 0 -75 20 -139 99 -326 96 -228 92 -482 -14
-728 -76 -179 -219 -344 -376 -435 -136 -79 -184 -119 -213 -177 -46 -94 -34
-137 64 -227 136 -124 164 -269 86 -435 -40 -83 -86 -129 -229 -225 -145 -99
-188 -138 -211 -194 -25 -60 -20 -106 22 -194 38 -77 54 -120 66 -176 5 -21 3
-28 -9 -28 -42 0 -403 163 -464 209 l-24 18 17 77 c10 43 38 119 63 169 40 81
59 105 158 202 62 61 120 122 129 137 26 41 35 132 21 204 -8 33 -42 132 -78
220 -74 182 -87 230 -87 311 1 107 49 183 172 269 153 107 245 208 316 349 29
59 66 169 77 230 41 239 28 422 -50 700 -62 223 -68 323 -26 434 44 116 129
194 377 346 271 167 366 313 393 605 10 112 1 246 -35 485 -33 224 -39 452
-12 501 26 48 86 101 173 154 176 106 310 253 379 414 26 61 31 86 34 179 2
59 7 107 11 105 4 -2 73 -32 155 -67z m-5870 32 c43 -213 58 -962 30 -1480
l-7 -123 -72 0 -72 0 -16 83 c-65 325 -94 676 -96 1164 l-1 372 52 3 c188 11
176 12 182 -19z m8459 -385 c39 -68 51 -117 50 -203 -1 -73 -19 -173 -44 -235
-5 -14 -11 -34 -13 -45 -8 -41 -69 -203 -114 -305 -67 -153 -143 -271 -232
-359 -85 -84 -166 -136 -315 -200 -218 -94 -358 -182 -339 -213 4 -6 3 -8 -3
-5 -15 9 -49 -31 -74 -88 -16 -38 -23 -76 -26 -155 -4 -92 0 -128 32 -290 42
-211 48 -335 21 -416 -53 -158 -150 -237 -422 -345 -194 -77 -259 -114 -340
-194 -109 -108 -124 -181 -83 -399 65 -340 -43 -691 -293 -952 -102 -107 -170
-155 -318 -229 -63 -31 -126 -67 -138 -79 -61 -55 -66 -121 -21 -261 16 -53
34 -120 39 -150 26 -157 -66 -364 -202 -458 -69 -47 -124 -70 -231 -96 -238
-59 -321 -129 -330 -278 l-3 -58 -132 -3 c-155 -3 -153 -4 -154 114 0 62 5 85
28 132 38 77 139 174 259 247 231 140 301 199 345 288 41 84 47 159 25 323
-23 173 -17 280 20 356 51 104 137 193 327 339 103 79 217 193 251 251 15 25
34 77 43 115 19 82 14 144 -25 327 -40 180 -45 230 -31 306 29 163 143 297
410 486 189 133 343 279 388 369 59 119 66 258 22 485 -48 251 -46 383 11 553
70 212 213 336 509 442 247 88 359 148 452 238 148 144 169 355 53 527 -19 29
-35 53 -35 55 0 1 35 6 78 10 107 9 344 51 422 74 98 28 105 27 133 -21z
m-1445 -9425 c28 -41 52 -78 52 -82 0 -4 -11 -13 -23 -18 -42 -19 -143 -121
-194 -195 -109 -158 -154 -286 -238 -673 -13 -60 -38 -168 -54 -240 -44 -188
-70 -360 -58 -382 8 -13 4 -12 -15 5 -14 13 -38 46 -54 75 -27 49 -29 58 -27
150 6 231 95 646 192 889 109 277 236 503 309 554 34 22 38 23 47 8 6 -9 34
-50 63 -91z m520 -390 c50 -20 92 -43 92 -49 0 -10 -67 -197 -135 -379 -56
-150 -196 -454 -351 -767 -90 -179 -166 -328 -171 -331 -4 -2 -34 7 -65 20
-70 31 -69 28 -29 185 63 244 197 622 324 913 82 188 219 456 230 451 7 -3 54
-22 105 -43z m502 -167 c0 -264 -115 -594 -337 -969 -98 -165 -162 -256 -284
-403 l-67 -81 -69 9 c-37 5 -70 11 -72 13 -2 3 40 46 94 97 112 106 149 153
230 293 77 133 217 414 249 497 48 130 82 340 89 558 l2 75 60 6 c118 11 105
23 105 -95z"/>
<path d="M15766 31439 c-69 -16 -155 -70 -216 -136 -61 -64 -131 -186 -145
-251 -5 -26 -11 -32 -23 -27 -33 13 -178 43 -233 49 l-55 6 -36 -102 c-20 -57
-36 -104 -34 -105 1 -1 24 5 51 13 72 22 165 14 244 -22 l64 -28 -6 -101 c-6
-93 -44 -415 -50 -421 -1 -2 -33 12 -70 31 -141 71 -296 82 -445 31 -153 -51
-277 -157 -307 -261 -18 -62 -12 -115 15 -140 17 -15 19 -15 25 4 12 40 113
120 172 137 147 43 306 -42 362 -191 21 -55 42 -181 34 -202 -3 -7 0 -13 6
-13 6 0 11 4 11 9 0 17 102 49 215 67 155 26 415 26 505 0 124 -36 190 -73
272 -156 60 -62 86 -97 122 -171 25 -52 54 -129 63 -171 l18 -77 45 -11 c109
-28 282 -143 361 -241 166 -206 219 -481 139 -719 -12 -34 -20 -63 -18 -65 2
-1 31 -9 65 -17 71 -18 67 -21 111 67 61 122 75 186 79 355 3 132 0 166 -17
228 -40 143 -119 268 -227 357 -109 90 -268 155 -379 155 -57 0 -49 13 20 29
55 13 131 50 193 92 51 35 64 35 246 5 338 -58 596 -149 844 -297 120 -73 180
-92 288 -93 77 -1 98 3 145 25 114 54 155 125 155 269 0 82 -4 103 -28 154
-64 139 -144 210 -407 366 -390 231 -673 481 -1146 1010 -139 155 -216 230
-338 324 -245 192 -501 279 -690 235z"/>
<path d="M12123 31323 c-22 -8 -15 -19 27 -47 61 -40 187 -163 237 -230 24
-32 42 -61 40 -63 -10 -10 -207 65 -336 128 -128 63 -145 69 -160 55 -23 -21
-79 -116 -86 -148 -8 -32 -11 -31 141 -47 114 -12 365 -59 377 -70 10 -10
-227 -75 -393 -107 -74 -14 -140 -28 -147 -29 -18 -6 17 -123 58 -190 31 -52
115 -144 122 -134 70 95 380 420 390 409 2 -3 -38 -120 -89 -260 l-92 -255 26
-6 c15 -4 74 -7 131 -8 l104 -1 -7 58 c-27 221 -32 332 -20 450 l7 60 150
-136 c82 -74 166 -157 185 -184 34 -45 52 -59 52 -40 0 5 9 17 19 29 19 20 18
21 -111 173 -177 206 -350 383 -483 494 -124 104 -125 105 -142 99z"/>
<path d="M8436 30048 c-7 -18 -33 -76 -56 -128 -75 -168 -215 -538 -299 -792
-113 -340 -242 -789 -231 -803 14 -17 109 -59 116 -52 4 3 12 46 20 94 33 223
139 464 272 623 l29 34 14 -104 c15 -118 18 -464 5 -614 l-8 -99 96 6 c100 7
226 25 226 34 0 2 -13 23 -29 46 -119 174 -214 464 -223 682 l-3 70 115 -1
c128 -1 228 -27 338 -86 121 -66 239 -174 307 -282 l38 -59 33 59 c55 96 138
333 123 348 -2 3 -51 7 -109 11 -218 13 -400 50 -503 101 -75 37 -178 107
-174 119 6 21 142 114 236 163 53 27 129 62 169 76 86 31 253 66 312 66 38 0
41 2 34 23 -22 71 -105 195 -178 266 l-45 44 -139 -134 c-151 -147 -440 -378
-454 -364 -4 4 64 581 77 653 l6 32 -50 0 c-48 0 -52 -2 -65 -32z"/>
<path d="M41531 27518 c-5 -18 -21 -69 -34 -113 -100 -319 -130 -417 -141
-465 -8 -30 -28 -106 -45 -168 -123 -446 -224 -943 -275 -1352 -54 -424 -60
-515 -61 -815 0 -286 0 -292 29 -405 15 -63 34 -128 42 -145 7 -16 41 -106 75
-200 189 -522 506 -1138 874 -1695 492 -745 1134 -1524 2204 -2673 139 -149
172 -191 203 -255 47 -98 106 -277 152 -462 155 -630 96 -1315 -161 -1838 -57
-118 -74 -143 -142 -211 -42 -42 -103 -95 -137 -119 -105 -73 -130 -156 -78
-259 53 -107 169 -177 289 -177 208 2 394 158 648 544 159 243 264 459 502
1035 276 669 378 870 610 1200 208 298 245 448 156 630 -82 166 -268 292 -526
355 -49 12 -259 47 -465 79 l-375 57 -68 179 c-579 1533 -1201 2754 -1950
3830 -83 120 -404 551 -460 619 l-24 29 101 121 c234 280 449 573 708 966 159
241 425 668 430 691 2 8 -36 17 -122 30 -672 98 -1197 362 -1815 912 -66 59
-123 107 -127 107 -4 0 -11 -15 -17 -32z"/>
<path d="M19775 25483 c-30 -30 -8 -119 87 -348 27 -66 74 -172 104 -236 84
-181 98 -259 52 -297 -31 -25 -186 41 -408 172 -206 123 -335 176 -425 176
-54 0 -75 -22 -75 -80 0 -39 5 -48 48 -89 85 -81 328 -219 639 -364 91 -43
156 -103 151 -140 -3 -20 -8 -22 -68 -20 -40 1 -115 16 -195 39 -284 80 -350
95 -450 101 -145 7 -207 -18 -192 -79 5 -18 22 -33 61 -51 98 -46 499 -204
707 -277 236 -84 253 -92 297 -133 39 -38 43 -79 10 -101 -13 -8 -72 -27 -132
-41 -145 -34 -246 -83 -314 -153 -37 -37 -52 -61 -50 -76 3 -20 7 -21 68 -16
36 3 144 5 240 4 206 -1 294 -17 538 -95 86 -27 190 -55 230 -62 39 -6 71 -14
70 -18 -2 -4 -68 -67 -148 -140 -672 -620 -1346 -1355 -1933 -2109 -250 -320
-337 -460 -399 -643 -28 -82 -32 -105 -32 -207 -1 -142 24 -228 96 -337 88
-131 190 -197 358 -232 193 -41 1130 -180 1510 -225 292 -35 731 -74 925 -84
88 -4 364 -7 613 -7 248 0 452 -1 452 -2 0 -1 -41 -80 -92 -174 -50 -95 -106
-206 -123 -248 -18 -42 -62 -139 -97 -216 -300 -645 -558 -1376 -739 -2094
-32 -128 -59 -248 -59 -266 0 -45 52 -119 124 -177 102 -82 626 -338 973 -477
283 -112 411 -147 675 -181 220 -28 338 -35 558 -35 155 1 202 4 230 17 19 8
98 70 175 138 557 487 1091 1034 1531 1570 118 143 358 450 385 490 15 23 18
19 241 -311 526 -782 1223 -1759 1482 -2079 128 -158 304 -335 376 -377 31
-18 91 -42 135 -54 111 -30 348 -30 615 0 264 30 405 57 772 150 773 195 1404
294 2177 341 l164 10 56 -34 c245 -147 532 -242 836 -276 179 -20 267 -55 500
-200 303 -189 455 -235 455 -137 0 41 -39 81 -130 132 -104 59 -216 143 -321
244 -110 103 -121 129 -69 156 56 29 75 23 380 -107 322 -138 451 -179 505
-158 95 36 -6 121 -318 266 -317 148 -364 173 -391 205 -76 89 -3 126 419 213
368 76 500 153 424 249 -35 46 -82 51 -245 28 -150 -22 -406 -83 -534 -126
-94 -32 -175 -41 -224 -25 -87 28 -36 71 262 216 117 57 241 123 275 146 158
107 218 228 112 228 -56 0 -530 -168 -855 -303 -117 -48 -156 -60 -203 -61
-51 -1 -61 2 -78 23 -24 29 -19 49 29 119 126 180 162 265 162 382 0 49 -4 71
-15 80 -14 11 -27 1 -96 -73 -156 -168 -331 -289 -567 -393 -78 -35 -175 -80
-215 -101 -97 -51 -198 -148 -237 -227 l-31 -63 -107 19 c-442 77 -1209 168
-1707 202 -364 25 -542 30 -995 31 -546 0 -582 -2 -735 -50 l-73 -22 -77 221
c-343 976 -659 1691 -1018 2296 -285 480 -645 949 -886 1153 l-55 46 17 103
c15 92 67 507 67 534 0 8 78 13 253 17 352 8 628 39 949 108 126 28 147 35
152 53 10 35 7 495 -4 632 -14 181 -17 196 -38 185 -38 -20 -310 -92 -458
-121 -88 -17 -235 -40 -329 -50 -178 -20 -426 -40 -435 -34 -4 1 6 114 21 251
15 136 28 258 28 270 1 12 17 41 36 65 97 122 150 194 195 268 103 165 197
375 260 580 18 58 33 106 34 107 1 1 59 -54 130 -122 209 -202 376 -325 571
-420 290 -141 617 -211 941 -202 87 3 317 10 509 15 491 14 794 53 1188 152
43 11 80 20 84 20 13 0 -21 506 -43 627 -5 28 2 41 66 120 106 131 184 252
255 398 104 211 154 390 171 603 l7 92 -46 0 c-185 0 -608 91 -809 175 -10 4
-18 3 -18 -1 0 -5 -9 -65 -20 -134 -75 -461 -272 -863 -567 -1153 -206 -203
-407 -323 -642 -382 -91 -23 -96 -24 -175 -9 -237 45 -420 104 -611 199 -180
90 -306 177 -439 305 -165 159 -276 317 -359 511 -75 175 -97 308 -97 588 0
191 -1 199 -25 248 -57 114 -198 235 -362 309 -388 177 -1106 203 -1606 58
-420 -122 -742 -375 -881 -691 -35 -78 -35 -82 -21 -117 8 -19 15 -39 15 -44
0 -5 -60 -30 -132 -56 -181 -65 -572 -233 -748 -321 -455 -229 -810 -518
-1029 -840 -338 -496 -284 -911 164 -1269 190 -152 415 -294 658 -416 106 -54
132 -71 115 -75 -82 -18 -495 -71 -778 -100 -838 -87 -2038 -238 -2464 -311
-48 -8 -90 -13 -93 -11 -2 3 18 47 46 98 47 90 89 183 271 604 334 770 733
1466 1229 2140 145 197 165 235 166 307 0 48 -5 64 -33 103 -17 25 -32 52 -32
60 0 8 -20 76 -45 151 -93 283 -220 503 -427 737 -141 160 -176 228 -258 507
-74 252 -154 410 -208 410 -65 0 -73 -74 -24 -215 44 -130 72 -273 79 -410 5
-104 3 -122 -11 -134 -9 -7 -26 -11 -39 -7 -56 14 -78 47 -222 342 -144 295
-202 395 -251 433 -32 25 -47 26 -69 4z m4076 -2247 c-50 -124 -139 -430 -175
-601 -85 -397 -113 -961 -65 -1320 6 -47 9 -88 7 -90 -7 -8 -272 65 -423 116
-589 199 -831 369 -891 625 -36 157 26 373 165 569 215 305 532 542 896 668
141 49 506 132 513 116 2 -3 -11 -41 -27 -83z m229 -76 c69 -467 314 -982 633
-1325 96 -105 137 -162 137 -194 0 -14 -31 -147 -68 -296 l-69 -270 -88 2
c-113 2 -381 29 -560 56 l-139 22 -7 35 c-4 19 -12 98 -18 175 -13 175 -6
1209 8 1320 27 201 51 305 122 527 27 87 29 85 49 -52z"/>
<path d="M48799 24989 c-22 -42 29 -173 112 -286 24 -32 84 -107 135 -168 107
-129 175 -230 167 -251 -8 -20 -60 -17 -107 6 -23 11 -84 59 -136 106 -177
161 -431 345 -503 365 -62 17 -117 -11 -117 -61 0 -68 97 -168 330 -341 85
-64 183 -146 218 -182 70 -74 72 -91 9 -124 -28 -15 -69 -18 -312 -20 -392 -3
-465 -13 -465 -66 0 -14 6 -29 13 -36 40 -32 280 -60 537 -61 63 0 146 -5 185
-10 60 -7 74 -13 97 -39 16 -17 28 -36 28 -41 0 -42 -253 -117 -489 -145 -120
-14 -163 -32 -169 -72 -5 -33 30 -52 108 -62 67 -9 262 0 323 14 62 14 240 23
309 15 42 -5 134 -27 204 -50 168 -53 292 -78 453 -89 121 -9 288 -3 416 14
l50 7 116 -124 c501 -533 758 -869 1321 -1728 183 -280 271 -381 566 -646 116
-105 208 -157 438 -247 233 -92 900 -314 1659 -554 l120 -37 -50 -7 c-27 -4
-78 -8 -113 -8 -35 -1 -76 -8 -92 -16 -36 -18 -32 -7 -135 -450 -43 -181 -102
-433 -132 -560 -107 -450 -193 -828 -191 -839 1 -6 -12 -38 -29 -72 -38 -73
-56 -166 -48 -242 20 -174 150 -510 272 -700 l34 -54 -70 -211 c-67 -202 -151
-481 -151 -499 0 -4 13 -8 29 -8 17 0 54 -17 92 -43 240 -164 559 -323 939
-469 176 -67 510 -184 590 -206 126 -35 320 -71 420 -78 l95 -6 64 48 c64 46
66 47 105 36 675 -192 995 -188 1172 14 127 144 444 413 684 578 232 161 572
348 799 440 36 14 72 32 80 40 9 8 48 31 86 52 192 103 350 218 549 400 l126
115 168 -92 c92 -50 205 -113 252 -139 108 -60 505 -275 808 -437 127 -69 232
-126 232 -128 0 -2 11 -80 25 -174 33 -226 133 -1001 185 -1426 207 -1704 305
-2432 420 -3126 43 -263 58 -327 96 -401 54 -107 148 -172 240 -166 l49 3 18
70 c25 103 33 212 26 375 -8 161 -23 261 -104 655 -122 596 -182 1167 -225
2140 -40 904 -54 1197 -71 1395 -5 63 -8 124 -8 135 2 39 75 -405 335 -2035
126 -794 227 -1379 329 -1912 87 -449 115 -568 150 -639 56 -110 153 -179 251
-179 50 0 53 1 63 33 22 67 34 214 28 342 -7 165 -30 294 -111 630 -166 692
-234 1155 -321 2170 -3 33 -12 155 -20 270 -38 509 -106 1266 -120 1336 -6 25
-4 26 85 43 50 10 94 16 96 13 10 -10 42 -158 339 -1577 220 -1050 387 -1796
530 -2360 99 -389 137 -470 254 -533 57 -31 138 -45 168 -29 16 9 23 28 32 87
33 226 -1 441 -149 945 -156 532 -246 949 -344 1601 -36 236 -50 339 -151
1124 -31 237 -74 550 -95 696 -22 146 -40 269 -40 275 0 11 149 99 156 92 5
-6 123 -455 279 -1058 338 -1312 501 -1918 686 -2545 147 -497 176 -573 255
-651 25 -25 64 -54 87 -64 49 -23 159 -27 175 -7 17 21 24 197 12 308 -19 173
-54 307 -190 709 -260 773 -350 1159 -594 2550 -78 442 -152 839 -189 1012
-11 50 -12 70 -3 76 22 18 187 112 195 112 5 0 172 -489 371 -1087 547 -1642
746 -2216 988 -2845 78 -202 103 -250 164 -314 77 -82 173 -117 258 -94 l42
11 -5 147 c-3 81 -13 181 -22 222 -28 130 -109 356 -225 630 -295 696 -434
1151 -774 2525 -69 281 -158 629 -197 775 -39 146 -74 274 -76 286 -3 14 2 23
19 31 13 6 57 27 99 46 l77 36 90 -202 c49 -111 225 -506 390 -877 403 -908
635 -1417 840 -1840 305 -631 328 -675 400 -752 82 -88 201 -126 288 -93 l46
17 -6 67 c-27 268 -102 464 -360 935 -309 561 -539 1108 -919 2186 -42 118
-119 336 -172 484 -52 148 -95 274 -95 280 0 6 35 24 77 40 l77 29 91 -17
c273 -50 512 -48 775 9 85 18 239 21 319 5 30 -5 99 -21 154 -35 230 -58 391
-71 427 -35 23 23 25 38 7 61 -19 25 -49 37 -144 59 -185 43 -416 134 -458
180 -24 26 -13 47 37 75 35 18 43 19 195 7 402 -32 472 -35 539 -24 71 12 94
24 94 53 0 52 -136 85 -520 124 -177 18 -191 21 -242 46 -96 49 -36 115 252
279 186 107 253 152 318 216 42 43 52 59 52 87 0 48 -30 72 -89 72 -75 -1
-340 -143 -557 -298 -114 -82 -164 -107 -213 -107 -87 0 -63 38 177 278 134
134 198 205 225 252 59 103 61 161 4 168 -19 2 -56 -20 -154 -94 -150 -114
-379 -298 -513 -414 -104 -90 -156 -121 -202 -122 -32 -1 -58 22 -58 50 0 8
14 58 32 111 27 83 32 111 32 206 1 91 -2 117 -19 150 -32 64 -45 57 -94 -51
-95 -206 -183 -315 -493 -611 -108 -103 -160 -189 -179 -300 l-11 -62 -40 -6
c-21 -4 -41 -5 -42 -3 -1 1 -42 102 -91 223 -167 418 -398 907 -630 1330 -786
1439 -1139 2011 -1569 2550 -114 144 -392 417 -506 498 -161 113 -379 212
-497 224 -52 6 -53 7 -110 82 -73 97 -227 256 -323 334 -270 218 -615 358
-981 398 -70 8 -156 9 -264 3 -88 -4 -239 -8 -335 -8 -149 0 -189 4 -270 23
-201 50 -387 150 -527 284 -37 36 -54 46 -57 36 -3 -8 -26 -133 -51 -279 -25
-146 -50 -279 -56 -296 -13 -42 -47 -71 -92 -79 -36 -7 -41 -5 -70 30 -57 70
-159 95 -224 56 -17 -11 -34 -28 -37 -38 -5 -15 -22 -21 -80 -30 -143 -20
-243 -90 -304 -211 -44 -88 -55 -157 -49 -287 8 -173 69 -351 221 -655 46 -91
98 -198 115 -238 l32 -73 -73 -77 c-73 -77 -348 -414 -348 -427 0 -8 -393
-493 -460 -568 -4 -5 -63 11 -132 35 -94 33 -131 42 -153 36 -17 -4 -77 -19
-135 -33 -439 -105 -757 -283 -909 -507 -21 -31 -42 -54 -46 -50 -5 4 -5 2 -2
-5 4 -6 -2 -31 -12 -56 -23 -54 -57 -216 -72 -351 -14 -120 -7 -334 15 -431
95 -436 412 -696 962 -790 522 -89 960 35 1349 383 149 133 246 248 376 446
66 100 179 302 179 319 0 3 -83 69 -185 147 -102 78 -187 145 -190 150 -7 11
47 139 97 230 22 41 84 138 138 215 54 77 122 178 152 225 57 88 156 187 293
290 133 101 270 147 381 130 102 -16 163 -54 310 -190 53 -50 142 -121 198
-158 101 -67 101 -68 150 -162 157 -302 339 -829 486 -1406 88 -348 257 -1138
248 -1164 -1 -5 -70 44 -153 109 -82 65 -217 167 -299 227 -148 108 -149 109
-162 161 -31 120 -129 272 -237 366 -97 85 -174 137 -375 259 -103 62 -282
176 -398 254 -162 109 -208 135 -198 115 11 -23 8 -48 -21 -196 -19 -93 -53
-233 -75 -310 -22 -77 -42 -149 -45 -159 -8 -32 -86 -236 -117 -306 -141 -314
-327 -574 -522 -729 -94 -75 -218 -146 -330 -190 -223 -87 -463 -159 -586
-176 -25 -4 -83 -13 -130 -20 -284 -47 -618 -43 -870 9 -41 9 -76 14 -78 11
-3 -3 -11 0 -19 6 -7 6 -13 9 -13 6 0 -7 -119 26 -223 62 -76 26 -104 38 -227
94 -25 12 -83 43 -130 70 -519 304 -792 807 -814 1500 -7 218 17 431 70 614
52 182 118 289 273 443 236 234 621 435 1101 573 198 57 379 98 442 99 l50 1
-46 19 c-95 37 -292 89 -360 94 -41 4 -102 1 -146 -6 -103 -18 -112 -17 -215
14 -635 192 -1562 318 -2525 341 -129 3 -254 8 -277 11 -39 5 -43 8 -43 33 0
64 -57 203 -123 301 -68 101 -172 212 -359 385 -647 598 -1340 1142 -2068
1621 l-165 109 -6 67 c-8 100 -57 191 -176 327 -227 261 -311 399 -384 632
-35 109 -51 112 -94 17 -38 -85 -43 -189 -16 -326 27 -138 15 -171 -57 -157
-31 6 -86 57 -392 366 -322 326 -358 360 -387 359 -22 0 -36 -6 -44 -21z
m12822 -4320 c283 -508 544 -1141 856 -2079 102 -306 352 -1117 376 -1221 6
-24 3 -27 -48 -41 l-55 -15 -11 41 c-112 423 -292 1028 -501 1686 -219 688
-445 1267 -645 1650 -94 182 -78 170 28 -21z m1196 -1169 c145 -327 251 -579
380 -905 180 -456 398 -1043 390 -1052 -3 -2 -37 -13 -77 -23 -52 -13 -72 -15
-75 -7 -3 7 -34 109 -70 227 -163 534 -613 1794 -812 2275 -42 99 -77 187 -79
195 -13 46 239 -476 343 -710z m-1507 455 c202 -474 408 -1087 620 -1849 113
-406 253 -968 243 -976 -4 -4 -30 -17 -56 -28 -35 -16 -49 -18 -52 -9 -2 7
-25 107 -50 222 -59 269 -333 1357 -420 1670 -107 386 -254 845 -336 1052 -26
65 -36 104 -25 92 2 -2 36 -80 76 -174z m2155 -475 c230 -438 605 -1208 829
-1702 35 -78 35 -78 13 -83 -91 -21 -121 -25 -128 -18 -4 4 -30 73 -57 153
-85 248 -246 647 -470 1165 -167 386 -279 641 -297 676 -10 19 -13 30 -7 24 6
-5 58 -102 117 -215z"/>
<path d="M9598 18358 c-137 -54 -312 -102 -458 -127 -154 -26 -391 -44 -485
-36 l-70 6 -78 -95 c-90 -110 -161 -174 -233 -210 -158 -80 -410 -74 -570 13
-29 16 -56 26 -59 23 -3 -3 -5 -28 -5 -55 0 -124 104 -177 350 -177 204 0 391
49 499 131 48 37 53 38 47 17 -16 -56 -36 -162 -36 -188 0 -82 -390 -452 -677
-643 -352 -233 -806 -407 -1168 -447 -128 -14 -215 -5 -340 35 -97 31 -177 33
-221 6 -69 -42 -108 -125 -106 -227 2 -177 148 -295 419 -340 133 -22 396 -28
578 -15 289 22 464 51 1235 211 539 111 735 136 1170 150 206 6 301 13 343 24
223 61 337 231 324 481 -6 112 -28 194 -88 323 -21 47 -39 88 -39 92 0 5 21 2
47 -6 183 -55 443 -33 750 63 l83 25 0 70 c0 63 -2 69 -17 62 -193 -84 -375
-84 -549 2 -167 82 -307 271 -330 444 l-7 52 59 -8 c92 -13 301 -7 384 10 105
23 212 60 300 105 85 44 81 33 59 174 l-11 68 -38 -34 c-92 -84 -325 -125
-537 -96 -98 13 -266 68 -358 118 l-70 37 -97 -38z"/>
<path d="M20611 15385 c-320 -353 -958 -1192 -1143 -1505 -93 -157 -123 -227
-123 -291 0 -65 19 -51 -185 -139 -1533 -661 -2495 -1156 -3420 -1758 -459
-299 -1024 -731 -1387 -1060 -184 -166 -293 -323 -324 -463 -7 -37 -10 -102
-6 -185 5 -145 24 -219 87 -344 l38 -75 -1 -130 c-1 -128 0 -132 40 -246 60
-170 63 -175 123 -188 197 -42 625 35 1035 186 517 191 867 377 1143 611 29
25 55 54 58 66 4 19 24 27 142 55 315 75 1108 300 1607 456 77 24 262 80 410
125 149 45 340 103 425 130 85 27 236 74 335 105 243 76 444 147 600 213 131
54 457 213 481 233 10 8 15 8 19 -2 68 -194 195 -510 262 -648 25 -53 61 -130
80 -171 145 -318 511 -968 536 -953 6 3 7 1 3 -5 -16 -26 482 -730 506 -716 6
4 8 2 5 -3 -4 -6 -1 -15 6 -20 25 -21 69 -23 135 -7 37 8 96 21 132 29 36 7
110 25 165 38 124 32 292 67 318 67 11 0 70 -49 142 -118 362 -350 769 -650
1185 -874 89 -48 326 -158 340 -158 6 0 55 42 108 93 316 301 775 701 1155
1005 70 57 127 106 127 111 0 4 -21 23 -47 42 -27 18 -115 87 -198 153 -380
303 -603 530 -782 799 -112 169 -323 607 -292 607 5 0 98 -51 207 -114 935
-538 1789 -927 2595 -1182 110 -35 202 -66 205 -68 3 -3 -2 -51 -11 -105 -16
-97 -19 -104 -93 -217 -59 -90 -75 -121 -67 -133 40 -65 294 -213 458 -266
408 -132 944 -16 1191 258 88 98 154 236 170 355 6 48 3 60 -40 156 -25 57
-46 113 -46 124 0 40 -48 259 -75 338 -38 113 -83 189 -208 352 -287 374 -631
737 -1079 1139 -302 272 -604 523 -1393 1158 -115 93 -316 257 -445 365 -641
533 -903 711 -1249 850 l-116 46 -53 80 c-158 236 -476 797 -714 1261 -65 129
-97 181 -107 178 -33 -12 -282 -27 -696 -40 -193 -7 -174 1 -232 -107 -24 -46
-43 -70 -61 -77 -15 -5 -76 -28 -137 -50 -60 -23 -144 -53 -185 -67 -41 -14
-158 -56 -260 -94 -355 -131 -390 -143 -396 -138 -8 9 69 297 121 453 25 74
45 139 45 144 0 10 -99 31 -104 22 -11 -19 -116 -358 -132 -423 -10 -43 -21
-78 -24 -78 -4 0 -36 28 -71 63 -77 75 -351 317 -360 317 -3 0 -12 -26 -19
-57 l-12 -57 39 -35 c21 -20 103 -94 182 -165 78 -71 158 -152 176 -180 l34
-51 -29 -170 c-16 -93 -37 -243 -46 -332 -13 -122 -20 -163 -30 -163 -8 0 -14
4 -14 8 0 4 -24 26 -52 47 -29 22 -66 52 -83 66 -16 15 -88 77 -160 139 l-130
113 -7 -39 c-17 -94 -20 -89 128 -214 75 -63 162 -137 193 -164 31 -26 73 -60
93 -73 35 -23 37 -27 33 -71 -2 -26 -6 -212 -11 -414 -6 -322 -11 -393 -26
-360 -3 6 -173 144 -382 307 l-89 70 7 233 c3 128 13 321 22 430 8 108 17 226
20 262 23 323 113 780 217 1103 l25 78 -86 43 c-48 24 -145 83 -215 130 -71
47 -129 86 -131 86 -1 0 -57 -61 -125 -135z m1912 -762 c-8 -21 -23 -56 -33
-78 -34 -75 -97 -240 -129 -337 -18 -54 -37 -100 -42 -104 -5 -3 -6 -10 -3
-16 4 -7 2 -8 -4 -4 -6 3 -113 -43 -238 -104 -125 -60 -228 -110 -230 -110 -1
0 -45 -20 -96 -44 -51 -24 -126 -57 -165 -74 -86 -37 -80 -53 -57 151 21 192
53 400 62 409 10 10 323 126 642 239 30 10 107 39 170 63 63 25 120 45 127 45
9 1 8 -9 -4 -36z m-259 -755 c-36 -139 -71 -334 -94 -513 -11 -88 -20 -165
-20 -171 0 -6 -39 -35 -87 -64 -111 -68 -428 -270 -511 -327 -35 -24 -66 -43
-69 -43 -8 0 5 739 13 801 l6 45 102 44 c162 69 462 210 571 266 55 28 103 52
106 53 4 0 -4 -41 -17 -91z m-1379 -810 l-1 -51 103 -81 c57 -44 129 -101 161
-126 32 -25 95 -75 139 -112 l81 -68 6 -167 c3 -93 9 -262 12 -378 3 -115 8
-213 11 -217 27 -47 -185 107 -467 339 l-27 22 -6 -34 c-3 -19 -2 -48 3 -64 4
-16 6 -31 4 -33 -11 -12 158 -148 372 -300 l132 -93 12 -95 c19 -149 56 -319
111 -510 28 -96 53 -185 56 -197 5 -22 3 -21 -88 11 -101 36 -347 101 -354 94
-3 -3 3 -29 13 -59 14 -40 25 -56 43 -61 13 -4 51 -14 84 -23 136 -36 203 -60
283 -101 47 -24 89 -41 95 -37 6 3 7 1 3 -5 -11 -19 115 -336 235 -591 27 -57
48 -106 46 -108 -2 -2 -111 32 -243 76 -131 44 -239 79 -240 78 -1 -1 11 -31
27 -67 l30 -66 97 -33 c53 -19 167 -55 252 -81 85 -27 158 -54 162 -62 67
-117 127 -232 124 -235 -3 -3 -100 23 -436 117 -36 10 -66 18 -67 16 -1 -1 9
-24 22 -51 14 -26 25 -54 25 -61 0 -8 25 -20 58 -29 31 -9 77 -23 102 -30 43
-13 279 -75 349 -93 30 -7 43 -21 94 -102 l59 -95 51 4 c29 1 49 0 46 -3 -3
-3 -30 -8 -60 -11 -30 -2 -141 -11 -248 -20 -212 -18 -247 -16 -279 18 -20 21
-213 408 -282 567 -18 41 -54 119 -80 175 -26 55 -63 138 -83 185 -19 47 -60
144 -90 215 -59 138 -197 510 -227 610 -85 282 -149 544 -179 735 -47 294 -53
388 -58 885 -2 286 0 475 5 467 5 -7 8 -36 7 -64z m1250 -396 c0 -202 3 -385
7 -407 l7 -40 -97 -65 c-82 -54 -403 -284 -437 -312 -40 -33 -89 -68 -95 -68
-13 0 -39 501 -40 750 l0 95 38 24 c20 14 125 81 232 149 107 69 236 151 285
183 50 32 92 58 95 59 3 0 5 -165 5 -368z m25 -586 c0 -60 59 -478 91 -644 11
-57 19 -109 17 -116 -2 -6 -64 -67 -138 -135 -74 -68 -173 -160 -220 -205
-183 -174 -170 -163 -183 -141 -6 11 -12 25 -13 32 -1 6 -22 76 -48 155 -25
78 -57 188 -70 243 -33 131 -70 365 -59 375 32 28 344 256 463 339 133 92 160
108 160 97z m150 -912 c0 -48 91 -396 151 -577 53 -161 53 -161 41 -153 -5 3
-102 -89 -217 -204 -115 -115 -210 -208 -212 -207 -12 12 -163 345 -224 491
l-73 179 95 91 c52 50 151 143 219 207 226 210 220 205 220 173z m292 -956
c27 -62 56 -128 64 -146 8 -19 11 -31 6 -28 -8 5 -77 -69 -142 -154 -19 -25
-38 -47 -41 -50 -4 -3 -45 -58 -92 -122 l-85 -117 -43 72 c-24 40 -65 112 -91
161 l-47 89 206 208 c114 115 209 207 211 205 2 -3 26 -56 54 -118z m167 -341
c76 -138 208 -324 336 -474 25 -30 32 -44 23 -47 -7 -2 -137 -14 -288 -26
-151 -11 -289 -23 -306 -26 -30 -6 -34 -2 -88 80 -31 47 -59 92 -62 100 -10
26 309 453 341 455 6 1 25 -27 44 -62z"/>
<path d="M52573 14668 c-107 -132 -489 -491 -953 -897 -283 -248 -743 -617
-1290 -1038 -141 -108 -779 -585 -1081 -808 -956 -705 -1569 -1179 -2075
-1602 -252 -210 -304 -273 -341 -416 -26 -103 -13 -346 87 -1567 27 -337 73
-809 125 -1287 46 -430 54 -465 110 -506 24 -17 197 -59 502 -123 l132 -27 31
-91 c153 -440 439 -1122 856 -2043 90 -199 164 -366 164 -373 0 -25 -54 -113
-141 -230 -104 -140 -344 -388 -479 -494 -341 -269 -783 -475 -1164 -541 -138
-24 -231 -20 -376 16 -151 37 -186 33 -243 -30 -40 -45 -57 -93 -57 -165 0
-73 19 -123 66 -175 110 -122 314 -170 674 -158 308 10 555 50 1106 178 673
155 847 184 1259 204 288 14 355 25 438 66 135 69 207 200 207 378 0 176 -42
273 -347 796 l-210 361 -11 199 c-24 403 -83 1017 -140 1463 -11 83 -14 142
-9 142 5 0 213 -76 461 -169 1580 -593 3273 -1174 4822 -1657 593 -184 565
-185 1174 46 831 315 1964 676 2995 955 55 15 106 30 114 33 11 4 13 -3 7 -39
-28 -195 -93 -851 -121 -1221 l-14 -197 -152 -247 c-176 -287 -239 -404 -268
-494 -67 -210 -34 -402 88 -513 103 -93 189 -113 579 -137 315 -20 504 -56
1195 -230 682 -171 874 -202 1232 -202 239 -1 328 13 434 64 118 57 181 146
181 257 0 74 -19 122 -64 168 -58 57 -100 63 -233 29 -189 -48 -346 -31 -653
70 -447 147 -873 434 -1186 797 -126 146 -236 302 -284 402 -38 79 -70 182
-70 225 0 12 84 196 187 409 221 459 308 644 455 971 60 135 113 248 117 253
15 15 686 175 692 165 3 -5 14 -53 23 -107 10 -53 21 -102 25 -109 5 -8 83 9
281 63 984 267 895 241 893 266 -1 13 -22 157 -47 319 -55 358 -88 583 -115
795 -22 169 -156 1267 -191 1565 -53 452 -140 995 -192 1195 -54 209 -95 293
-212 433 -191 228 -452 443 -1116 917 -434 310 -481 346 -730 554 -163 136
-548 446 -815 657 -126 99 -515 397 -873 669 -1134 860 -1549 1180 -1921 1485
-57 47 -117 95 -132 108 l-28 23 -113 -16 c-986 -133 -2111 -45 -3079 241 -64
19 -120 34 -126 34 -5 0 -32 -28 -60 -62z m3092 -939 c339 -29 649 -142 959
-349 55 -38 119 -84 140 -102 l40 -35 -75 -23 c-237 -72 -518 -124 -770 -142
-495 -35 -1005 88 -1322 319 l-48 35 78 32 c43 17 130 62 194 99 176 102 323
149 528 166 121 11 141 11 276 0z m-2980 -65 c188 -30 274 -57 408 -127 357
-188 671 -562 832 -992 57 -153 107 -335 92 -335 -13 0 -208 84 -324 140 -556
267 -954 631 -1176 1075 -50 100 -107 255 -107 290 0 11 11 10 58 -6 31 -11
129 -31 217 -45z m-1218 -783 c246 -308 616 -537 1003 -621 l95 -20 -150 4
c-323 10 -575 115 -791 330 -124 124 -196 234 -260 396 -44 111 -43 130 3 52
21 -35 65 -98 100 -141z m6316 -691 c323 -70 575 -248 743 -525 55 -90 111
-213 120 -267 5 -28 -1 -21 -39 40 -98 155 -220 290 -377 415 -47 38 -92 74
-100 80 -8 7 -35 24 -60 39 -220 128 -381 192 -590 234 -64 13 -63 13 70 9 86
-2 171 -12 233 -25z m-2322 -386 c84 -13 254 -67 274 -86 7 -6 5 -7 -5 -4 -35
13 -84 17 -225 23 -291 11 -537 -40 -814 -169 -123 -57 -206 -108 -321 -197
l-85 -65 39 49 c85 108 259 257 378 324 29 16 91 45 138 64 204 82 386 100
621 61z m-4409 -13 l28 -6 -87 -105 c-113 -137 -314 -342 -433 -442 -409 -344
-891 -548 -1296 -548 l-114 0 34 48 c19 26 71 121 116 210 91 181 152 266 281
385 267 250 660 416 1072 456 98 10 361 11 399 2z m6243 -245 c99 -16 272 -53
288 -63 19 -11 -220 -201 -418 -332 -316 -207 -646 -343 -980 -402 -173 -31
-451 -33 -597 -6 -54 11 -98 21 -98 23 0 2 21 23 47 46 25 24 90 102 144 174
54 73 127 158 161 189 219 199 566 344 918 385 106 12 416 4 535 -14z m-5212
-233 c-160 -161 -326 -481 -392 -756 -43 -177 -57 -380 -39 -577 l6 -75 -24
75 c-77 239 -82 527 -13 733 78 234 226 443 409 578 64 47 89 58 53 22z m8067
-439 c0 -4 -31 -66 -68 -138 -366 -704 -902 -1176 -1491 -1315 -47 -11 -86
-19 -88 -18 -1 2 9 31 23 66 14 34 43 133 65 219 44 174 87 275 173 404 241
363 675 643 1166 751 165 37 220 44 220 31z m-6870 -43 c426 -100 801 -372
1082 -781 71 -103 168 -270 168 -289 0 -14 -24 -11 -255 30 -660 117 -1230
432 -1544 851 -38 51 -83 118 -100 148 l-30 55 102 -3 c56 -1 138 2 182 7 116
14 295 6 395 -18z m4324 -1047 c-81 -246 -237 -473 -423 -615 -77 -58 -255
-148 -356 -179 -88 -27 -241 -50 -320 -49 -57 1 -58 2 -25 11 217 61 369 128
526 229 248 160 461 390 589 637 15 29 29 51 31 49 3 -2 -7 -39 -22 -83z"/>
<path d="M16750 9187 l-205 -72 95 -7 c52 -5 193 -7 312 -5 l217 2 -91 78
c-50 42 -98 77 -107 76 -9 0 -108 -33 -221 -72z"/>
<path d="M17791 8359 c-142 -35 -323 -66 -488 -83 l-128 -13 50 -22 c161 -73
405 -157 571 -196 188 -45 560 -102 574 -89 2 3 -92 101 -210 219 -145 145
-221 215 -235 214 -11 -1 -71 -14 -134 -30z"/>
<path d="M18672 7398 c-573 -194 -1202 -241 -1785 -133 -72 13 -133 23 -135
21 -3 -3 344 -210 543 -323 227 -131 648 -358 905 -489 l135 -69 310 1 c373 0
693 27 1001 84 161 30 182 36 162 44 -9 4 -72 31 -140 59 -68 29 -130 57 -138
62 -9 6 -54 57 -100 115 -222 276 -583 681 -604 678 -6 0 -75 -23 -154 -50z"/>
<path d="M19825 6365 c-213 -108 -431 -196 -645 -259 -157 -46 -363 -96 -398
-96 -18 0 -19 -7 -14 -142 14 -441 -81 -911 -272 -1337 -163 -363 -449 -751
-652 -886 -33 -22 -106 -59 -163 -82 -150 -61 -191 -106 -191 -210 0 -71 24
-126 79 -186 58 -62 123 -89 220 -88 172 1 358 94 635 318 275 224 415 375
1010 1093 333 402 532 604 835 850 161 130 223 191 274 272 142 223 57 498
-209 677 -34 22 -115 66 -180 97 -65 30 -126 59 -134 62 -9 5 -82 -26 -195
-83z"/>
<path d="M27904 6113 c-15 -203 -10 -641 10 -803 78 -655 270 -1167 611 -1635
72 -99 101 -132 109 -124 6 6 139 665 180 889 l34 184 -101 115 c-350 401
-630 890 -791 1381 -17 55 -35 102 -38 105 -3 4 -10 -47 -14 -112z"/>
<path d="M27868 3399 c3 -175 0 -235 -13 -301 -49 -239 -166 -468 -432 -848
-64 -91 -130 -194 -147 -230 -28 -58 -31 -75 -31 -160 0 -86 3 -99 28 -143 34
-57 85 -93 152 -106 138 -27 909 -51 1250 -39 254 9 370 27 454 70 115 58 165
169 142 312 -22 133 -71 209 -265 415 -136 143 -215 253 -271 375 -37 79 -89
229 -100 288 -5 27 -15 38 -53 58 -190 101 -440 281 -648 466 l-69 62 3 -219z"/>
</g>
</svg>
