<?xml version="1.0" standalone="no"?>
<!DOCTYPE svg PUBLIC "-//W3C//DTD SVG 20010904//EN"
 "http://www.w3.org/TR/2001/REC-SVG-20010904/DTD/svg10.dtd">
<svg version="1.0" xmlns="http://www.w3.org/2000/svg"
 width="700.000000pt" height="700.000000pt" viewBox="0 0 700.000000 700.000000"
 preserveAspectRatio="xMidYMid meet">
<metadata>
Created by potrace 1.11, written by Peter Selinger 2001-2013
</metadata>
<g transform="translate(0.000000,700.000000) scale(0.100000,-0.100000)"
fill="#000000" stroke="none">
<path d="M3307 6864 c-1 -1 -47 -5 -101 -9 -55 -4 -109 -9 -120 -10 -12 -2
-55 -9 -96 -14 -41 -6 -86 -13 -100 -15 -14 -3 -38 -7 -55 -9 -54 -8 -318 -76
-400 -103 -185 -60 -402 -155 -576 -250 -88 -48 -102 -57 -239 -147 -124 -82
-124 -83 -255 -189 -549 -444 -942 -1053 -1120 -1733 -19 -71 -37 -148 -41
-170 -3 -22 -8 -43 -10 -46 -3 -5 -13 -65 -30 -179 -32 -223 -37 -637 -9 -830
2 -14 9 -63 15 -110 69 -513 295 -1061 619 -1495 410 -552 964 -957 1606
-1174 114 -38 319 -95 388 -106 18 -3 39 -8 47 -10 8 -2 35 -7 60 -10 24 -4
47 -8 50 -10 3 -1 32 -6 65 -9 33 -4 80 -9 105 -12 196 -24 608 -23 725 1 11
2 43 7 70 9 28 3 77 11 110 16 33 6 72 13 88 15 56 8 246 57 357 91 629 196
1195 584 1612 1107 267 334 498 786 603 1183 30 112 73 306 80 365 9 74 17
133 20 150 9 45 19 239 19 359 0 193 -16 411 -39 540 -3 14 -10 54 -16 90 -28
167 -131 513 -192 653 -10 20 -24 54 -33 75 -330 759 -998 1417 -1754 1726
-36 15 -74 31 -85 36 -67 31 -367 123 -444 136 -14 3 -44 10 -66 16 -22 5 -51
12 -65 14 -14 3 -50 9 -80 14 -30 5 -77 12 -105 16 -27 3 -58 8 -68 10 -57 11
-530 26 -540 18z"/>
</g>
</svg>
