<svg id="Flat" height="512" viewBox="0 0 512 512" width="512" xmlns="http://www.w3.org/2000/svg"><g><path d="m256 409c-84.3643 0-153-68.6357-153-153s68.6357-153 153-153a153.1433 153.1433 0 0 1 153 153c0 84.3643-68.6357 153-153 153z" fill="#d3effe"/><g fill="#80daff"><path d="m348.6367 125.5308a158.7639 158.7639 0 0 0 -84.6367-29.3348v-25.5618a24 24 0 1 0 -16 0v25.5618a158.7639 158.7639 0 0 0 -84.6367 29.3348l9.2734 13.038a142.8548 142.8548 0 0 1 75.3633-26.351v15.7822h16v-15.7822a142.8548 142.8548 0 0 1 75.3633 26.351z"/><path d="m264 441.3658v-25.5618a158.7639 158.7639 0 0 0 84.6367-29.3348l-9.2734-13.038a142.8548 142.8548 0 0 1 -75.3633 26.351v-15.7822h-16v15.7822a142.8548 142.8548 0 0 1 -75.3633-26.351l-9.2734 13.038a158.7639 158.7639 0 0 0 84.6367 29.3348v25.5618a24 24 0 1 0 16 0z"/><path d="m128 264v-16h-15.7822a142.8548 142.8548 0 0 1 26.351-75.3633l-13.038-9.2734a158.7642 158.7642 0 0 0 -29.3348 84.6367h-25.5617a24 24 0 1 0 0 16h25.5617a158.7642 158.7642 0 0 0 29.3348 84.6367l13.038-9.2734a142.8548 142.8548 0 0 1 -26.351-75.3633z"/><path d="m464 232a24.01 24.01 0 0 0 -22.6343 16h-25.5617a158.7642 158.7642 0 0 0 -29.3348-84.6367l-13.038 9.2734a142.8548 142.8548 0 0 1 26.351 75.3633h-15.7822v16h15.7822a142.8548 142.8548 0 0 1 -26.351 75.3633l13.038 9.2734a158.7642 158.7642 0 0 0 29.3348-84.6367h25.5617a24.0029 24.0029 0 1 0 22.6343-32z"/><path d="m171.147 159.8335-40.5637-40.5635a24 24 0 1 0 -11.3133 11.3133l40.5637 40.5637z"/><path d="m420.0488 386.1076a24.01 24.01 0 0 0 -27.3187-4.691l-40.5636-40.5636-11.3135 11.3135 40.5636 40.5635a24.0028 24.0028 0 1 0 38.6322-6.6225z"/><path d="m171.147 352.1665-11.3135-11.3135-40.5635 40.5636a24 24 0 1 0 11.3134 11.3134z"/><path d="m420.0488 91.9512a24.0039 24.0039 0 0 0 -38.6321 27.3188l-40.5637 40.5635 11.3135 11.3135 40.5635-40.5637a24.0039 24.0039 0 0 0 27.3186-38.6321z"/><path d="m360 280v-48h-27.6628a79.5012 79.5012 0 0 0 -5.3918-13.0043l19.5646-19.5642-33.9414-33.9415-19.5643 19.5643a79.4887 79.4887 0 0 0 -13.0043-5.3915v-27.6628h-48v27.6628a79.4887 79.4887 0 0 0 -13.0043 5.3918l-19.5643-19.5646-33.9414 33.9415 19.5642 19.5642a79.5012 79.5012 0 0 0 -5.3914 13.0043h-27.6628v48h27.6628a79.5012 79.5012 0 0 0 5.3918 13.0043l-19.5646 19.5642 33.941 33.9411 19.5642-19.5642a79.4934 79.4934 0 0 0 13.0048 5.3918v27.6628h48v-27.6628a79.4934 79.4934 0 0 0 13.0044-5.3918l19.5642 19.5646 33.941-33.9411-19.5642-19.5642a79.5012 79.5012 0 0 0 5.3918-13.0047z"/></g><path d="m256 208a48 48 0 1 0 48 48 48 48 0 0 0 -48-48zm-2.3433 69.6567a7.9993 7.9993 0 0 1 -11.3134 0l-16-16 11.3134-11.3134 10.3433 10.3432 26.3433-26.3432 11.3134 11.3134z" fill="#fcfeff"/></g></svg>